HIERARCHY
ROOT Hips
{
  OFFSET 0 0 0
  CHANNELS 6 Xposition Yposition Zposition Zrotation Yrotation Xrotation
  JOINT LeftThigh
  {
    OFFSET 8.409438 0 -5.917753
    CHANNELS 3 Zrotation Yrotation Xrotation
    JOINT LeftLeg
    {
      OFFSET 0 0 -42.358652
      CHANNELS 3 Zrotation Yrotation Xrotation
      JOINT LeftFoot
      {
        OFFSET 0 0 -39.357303
        CHANNELS 3 Zrotation Yrotation Xrotation
      }
    }
  }
  JOINT RightThigh
  {
    OFFSET -8.409438 0 -5.917753
    CHANNELS 3 Zrotation Yrotation Xrotation
    JOINT RightLeg
    {
      OFFSET 0 0 -42.358652
      CHANNELS 3 Zrotation Yrotation Xrotation
      JOINT RightFoot
      {
        OFFSET 0 0 -39.357303
        CHANNELS 3 Zrotation Yrotation Xrotation
      }
    }
  }
  JOINT SpineLow
  {
    OFFSET 0 0 4.719101
    CHANNELS 3 Zrotation Yrotation Xrotation
    JOINT SpineMid
    {
      OFFSET 0 0 12.899191
      CHANNELS 3 Zrotation Yrotation Xrotation
      JOINT Chest
      {
        OFFSET 0 0 12.899191
        CHANNELS 3 Zrotation Yrotation Xrotation
        JOINT LeftShoulder
        {
          OFFSET 7.550562 1.41573 9.438202
          CHANNELS 3 Zrotation Yrotation Xrotation
          JOINT LeftArm
          {
            OFFSET 9.155056 0 4.247191
            CHANNELS 3 Zrotation Yrotation Xrotation
            JOINT LeftForearm
            {
              OFFSET 0 0 25.771955
              CHANNELS 3 Zrotation Yrotation Xrotation
              JOINT LeftHand
              {
                OFFSET 0 0 25.197169
                CHANNELS 3 Zrotation Yrotation Xrotation
              }
            }
          }
        }
        JOINT RightShoulder
        {
          OFFSET -7.550562 1.41573 9.438202
          CHANNELS 3 Zrotation Yrotation Xrotation
          JOINT RightArm
          {
            OFFSET -9.155056 0 4.247191
            CHANNELS 3 Zrotation Yrotation Xrotation
            JOINT RightForearm
            {
              OFFSET 0 0 -25.771955
              CHANNELS 3 Zrotation Yrotation Xrotation
              JOINT RightHand
              {
                OFFSET 0 0 -25.197169
                CHANNELS 3 Zrotation Yrotation Xrotation
              }
            }
          }
        }
        JOINT Neck
        {
          OFFSET 0 0 15.101124
          CHANNELS 3 Zrotation Yrotation Xrotation
          JOINT Head
          {
            OFFSET 0 0 11.325843
            CHANNELS 3 Zrotation Yrotation Xrotation
            End Site
            {
              OFFSET 0 0 14.157303
            }
          }
        }
      }
    }
  }
}
MOTION
Frames: 11
Frame Time: 0.0
0.0  93.25843  0.0  -1.130306  26.887924  -87.091287  -1.484767  -15.989715  -11.435698  -17.473109  4.720779  13.291821  7.895509  0.264178  4.714796  -35.305651  3.623482  -9.034243  -13.902978  11.340977  11.93977  8.449508  4.122053  0.620855  2.955899  -0.167394  -0.666064  8.08364  -0.375412  -1.837951  8.08364  -0.375412  -1.837951  1.337366  28.58755  -0.759413  136.174921  33.67781  -176.755716  -26.539186  9.43539  96.246471  62.628202  -6.182049  3.776329  5.057693  2.122186  4.800018  -106.51915  70.643503  -149.533085  -58.642002  39.507191  -98.016984  93.473966  -6.919528  32.286443  -22.965853  4.068085  10.402395  -17.292341  2.665336  7.965058  
0.0  93.25843  0.0  -1.130401  24.984881  -86.974734  -0.961168  -15.732519  -10.907464  -16.93825  4.218536  13.055817  8.061262  0.339829  4.786411  -35.46484  3.53426  -9.448651  -12.791723  11.053977  12.025514  8.639089  4.061651  0.607024  3.238231  -0.090746  -0.734349  8.853213  -0.149313  -2.015275  8.853213  -0.149313  -2.015275  1.893678  27.783611  -0.387769  138.701665  31.965714  -177.780095  -26.950333  8.293182  96.442949  62.4951  -3.68755  5.389378  4.64475  3.287157  3.728489  -118.968278  69.04536  -161.642662  -60.731369  41.683151  -96.19352  92.979224  -7.783672  33.356411  -22.875443  4.008897  10.774028  -17.226612  2.608472  8.241285  
0.0  93.25843  0.0  -1.19774  23.051767  -86.89923  -0.77376  -15.420492  -10.5232  -15.891748  3.625483  13.256796  8.182058  0.394788  4.807615  -35.525531  3.409877  -9.771415  -11.715707  10.767603  12.058263  9.264205  4.060421  0.663077  3.510426  -0.031248  -0.811384  9.595204  0.032392  -2.216999  9.595204  0.032392  -2.216999  2.618566  26.944696  0.026675  141.145404  30.099742  -178.702784  -28.204762  6.792773  97.797933  61.583368  1.036997  7.306452  4.199747  4.598236  3.131549  -128.475755  66.46858  -170.317583  -62.111756  42.643785  -94.317659  93.131401  -8.659315  33.95314  -22.637115  4.029115  11.233119  -17.051743  2.610825  8.584884  
0.0  93.25843  0.0  -1.3581  20.970432  -86.768903  -0.120918  -15.317897  -9.994649  -15.287455  3.130808  12.96812  8.35099  0.467836  4.87307  -35.4893  3.170848  -10.142693  -10.939463  10.438105  12.018441  9.484513  3.991298  0.672911  3.787104  0.009271  -0.924504  10.349594  0.169767  -2.518477  10.349595  0.169767  -2.518477  3.19913  26.286535  0.618861  144.107523  28.560591  -179.346338  -29.841435  6.806736  99.776582  60.889111  6.54697  8.613019  3.579058  5.629834  3.193391  -134.480444  63.067806  -175.298027  -62.97279  43.0248  -92.885912  93.754099  -9.979756  34.261867  -22.521493  4.035026  11.668943  -16.96854  2.601331  8.911444  
0.0  93.25843  0.0  -1.777692  18.67705  -86.658239  0.807085  -15.48904  -9.49197  -14.522835  2.661178  12.733659  8.446885  0.530738  4.885271  -34.876856  2.732508  -10.318356  -9.832007  10.108106  12.092321  9.292597  3.821275  0.618977  4.089552  0.022057  -1.047518  11.175055  0.236829  -2.850171  11.175054  0.236829  -2.850171  3.730766  25.651032  1.318248  147.345105  27.32102  -179.462224  -29.684934  6.355671  99.519347  58.339625  6.258941  6.596589  2.835096  6.261464  3.397735  -137.739611  59.480074  -177.301451  -63.57668  43.274729  -92.255621  94.917484  -11.583575  34.233158  -22.234187  4.015033  12.140073  -16.756447  2.574604  9.262232  
0.0  93.25843  0.0  -2.061306  16.957476  -86.237814  1.153375  -15.653939  -9.233863  -13.762764  2.3045  12.366412  8.624944  0.593458  4.947561  -35.156154  2.159396  -10.817773  -9.225221  9.792838  11.977841  9.487367  3.76639  0.62903  4.308146  0.072317  -1.201629  11.769082  0.410431  -3.259747  11.769081  0.410431  -3.259747  4.526969  24.990799  2.512921  150.349077  26.315307  -179.032232  -29.77969  8.336101  98.764178  53.540662  3.707135  5.837867  1.776433  6.82268  3.499258  -138.694532  56.375496  -177.086622  -64.079146  44.094761  -92.426339  95.837961  -13.196983  34.178115  -22.173754  3.909139  12.530764  -16.712383  2.48205  9.551447  
0.0  93.25843  0.0  -2.494378  15.226332  -85.8464  1.66433  -16.041435  -8.997934  -12.88378  2.034025  12.056285  8.725996  0.633241  4.956914  -35.190279  1.42794  -11.156211  -8.45314  9.41953  11.94346  9.286243  3.725919  0.54289  4.500551  0.097893  -1.350572  12.292142  0.517083  -3.658867  12.292143  0.517083  -3.658867  5.313706  24.25788  3.404126  153.309012  24.846171  -178.345822  -33.156908  11.462428  98.826255  51.229151  3.725321  5.903488  0.886659  7.272958  3.414367  -138.433714  53.718764  -175.726295  -64.338122  45.289744  -93.210214  95.958554  -14.513655  34.073966  -21.86461  3.86953  12.932526  -16.482907  2.444196  9.849357  
0.0  93.25843  0.0  -2.945634  13.378097  -85.8139  2.301917  -16.533233  -8.477292  -12.021788  1.903218  11.750295  8.873128  0.691764  4.99903  -35.15887  0.899277  -11.215022  -7.950551  9.156841  11.777438  9.508726  3.68441  0.556349  4.664754  0.083117  -1.440876  12.74069  0.503247  -3.905743  12.740691  0.503247  -3.905743  6.054925  23.619178  3.765015  156.533223  22.844194  -177.751335  -36.438424  16.099989  98.587045  49.456964  3.440456  6.203778  0.485807  7.613397  3.259142  -137.753836  51.463487  -174.155155  -63.889088  46.232944  -93.948898  95.301472  -15.183692  34.030109  -21.568288  3.93176  13.200782  -16.263844  2.487723  10.050566  
0.0  93.25843  0.0  -2.947513  11.914387  -85.851435  2.813839  -16.668034  -7.856056  -11.252085  1.855514  11.526339  8.877524  0.810591  4.914896  -35.335907  0.794329  -11.311248  -7.422744  8.770931  11.67078  9.376383  3.760902  0.487674  4.732399  0.081774  -1.499479  12.924973  0.514984  -4.064772  12.924972  0.514984  -4.064772  6.886471  23.26039  4.231855  159.755915  20.885465  -177.490435  -37.814063  20.599403  99.122679  48.257046  2.532753  5.487336  0.744636  7.861045  3.317732  -137.183168  49.534227  -172.574554  -62.687789  46.070298  -94.768242  94.918  -15.816688  33.640026  -20.990529  4.299505  13.536886  -15.840035  2.764948  10.310291  
0.0  93.25843  0.0  -2.705723  10.220527  -85.922683  3.564319  -16.567983  -7.324562  -10.561848  1.860488  11.429182  8.960538  1.009174  4.924454  -35.044672  1.004946  -11.43445  -7.040672  8.500791  11.443759  9.510023  3.713799  0.512332  4.843481  0.079892  -1.565629  13.227859  0.529838  -4.243909  13.227859  0.529838  -4.243909  7.539174  22.981155  4.644839  162.745867  19.483005  -177.568419  -38.434898  24.065853  100.197091  47.606101  2.631664  3.479348  0.864465  8.2345  3.650047  -137.572035  47.900984  -172.373308  -61.692253  45.548451  -95.005275  95.65851  -16.233911  32.666933  -20.548965  4.768789  13.880611  -15.520749  3.115807  10.579336  
0.0  93.25843  0.0  -2.344284  8.067298  -86.010003  5.421921  -16.263068  -6.557145  -10.752072  1.836243  10.848926  9.297125  1.215384  5.069065  -34.002447  1.36774  -11.539279  -7.039052  8.122308  11.154707  9.46886  3.741216  0.466174  5.023697  0.15942  -1.568722  13.715313  0.758171  -4.233855  13.715312  0.758171  -4.233855  7.483392  22.778684  4.822627  165.70556  18.727939  -177.219888  -38.225266  25.976623  101.509644  47.203954  2.266073  0.692355  0.971608  8.286023  3.567096  -138.769531  46.39052  -172.737013  -61.45558  45.218144  -95.106874  97.067326  -16.505454  31.226382  -20.093282  4.999554  14.08873  -15.18537  3.292643  10.738368  
